<svg width="249" height="38" viewBox="0 0 249 38" fill="none" xmlns="http://www.w3.org/2000/svg">
<rect width="249" height="38" rx="19" fill="white"/>
<path d="M42.2344 21.2969C42.2708 21.9479 42.4245 22.4766 42.6953 22.8828C43.2109 23.6432 44.1198 24.0234 45.4219 24.0234C46.0052 24.0234 46.5365 23.9401 47.0156 23.7734C47.9427 23.4505 48.4062 22.8724 48.4062 22.0391C48.4062 21.4141 48.2109 20.9688 47.8203 20.7031C47.4245 20.4427 46.8047 20.2161 45.9609 20.0234L44.4062 19.6719C43.3906 19.4427 42.6719 19.1901 42.25 18.9141C41.5208 18.4349 41.1562 17.7188 41.1562 16.7656C41.1562 15.7344 41.513 14.888 42.2266 14.2266C42.9401 13.5651 43.9505 13.2344 45.2578 13.2344C46.4609 13.2344 47.4818 13.526 48.3203 14.1094C49.1641 14.6875 49.5859 15.6146 49.5859 16.8906H48.125C48.0469 16.276 47.8802 15.8047 47.625 15.4766C47.151 14.8776 46.3464 14.5781 45.2109 14.5781C44.2943 14.5781 43.6354 14.7708 43.2344 15.1562C42.8333 15.5417 42.6328 15.9896 42.6328 16.5C42.6328 17.0625 42.8672 17.474 43.3359 17.7344C43.6432 17.901 44.3385 18.1094 45.4219 18.3594L47.0312 18.7266C47.8073 18.9036 48.4062 19.1458 48.8281 19.4531C49.5573 19.9896 49.9219 20.7682 49.9219 21.7891C49.9219 23.0599 49.4583 23.9688 48.5312 24.5156C47.6094 25.0625 46.5365 25.3359 45.3125 25.3359C43.8854 25.3359 42.7682 24.9714 41.9609 24.2422C41.1536 23.5182 40.7578 22.5365 40.7734 21.2969H42.2344ZM54.1991 13.5234H62.5662V14.9297H55.7147V18.4141H62.0506V19.7422H55.7147V23.6328H62.6834V25H54.1991V13.5234ZM67.0309 13.5234H75.3981V14.9297H68.5466V18.4141H74.8825V19.7422H68.5466V23.6328H75.5153V25H67.0309V13.5234ZM87.0853 13.5234L89.2494 22.8594L91.8431 13.5234H93.5306L96.1244 22.8594L98.2884 13.5234H99.9916L96.9759 25H95.3431L92.6947 15.4844L90.0306 25H88.3978L85.3978 13.5234H87.0853ZM103.636 13.5234H105.206V18.2656H111.175V13.5234H112.745V25H111.175V19.6328H105.206V25H103.636V13.5234ZM123.21 20.2969L121.468 15.2266L119.616 20.2969H123.21ZM120.655 13.5234H122.413L126.577 25H124.874L123.71 21.5625H119.171L117.929 25H116.335L120.655 13.5234ZM137.315 13.5234V14.8906H133.448V25H131.87V14.8906H128.003V13.5234H137.315ZM147.995 13.5234L150.159 22.8594L152.753 13.5234H154.44L157.034 22.8594L159.198 13.5234H160.901L157.885 25H156.253L153.604 15.4844L150.94 25H149.307L146.307 13.5234H147.995ZM164.655 13.5234H173.022V14.9297H166.17V18.4141H172.506V19.7422H166.17V23.6328H173.139V25H164.655V13.5234ZM188.357 23.6719C188.884 23.6719 189.316 23.6172 189.654 23.5078C190.259 23.3047 190.753 22.9141 191.139 22.3359C191.446 21.8724 191.667 21.2786 191.803 20.5547C191.881 20.1224 191.92 19.7214 191.92 19.3516C191.92 17.9297 191.636 16.8255 191.068 16.0391C190.506 15.2526 189.597 14.8594 188.342 14.8594H185.584V23.6719H188.357ZM184.022 13.5234H188.67C190.248 13.5234 191.472 14.0833 192.342 15.2031C193.118 16.2135 193.506 17.5078 193.506 19.0859C193.506 20.3047 193.277 21.4062 192.818 22.3906C192.011 24.1302 190.623 25 188.654 25H184.022V13.5234ZM202.627 13.2109C204.653 13.2109 206.153 13.862 207.127 15.1641C207.887 16.1797 208.268 17.4792 208.268 19.0625C208.268 20.776 207.833 22.2005 206.963 23.3359C205.942 24.6693 204.486 25.3359 202.596 25.3359C200.83 25.3359 199.442 24.7526 198.432 23.5859C197.531 22.4609 197.08 21.0391 197.08 19.3203C197.08 17.7682 197.465 16.4401 198.236 15.3359C199.226 13.9193 200.689 13.2109 202.627 13.2109ZM202.783 23.9453C204.153 23.9453 205.143 23.4557 205.752 22.4766C206.366 21.4922 206.674 20.362 206.674 19.0859C206.674 17.737 206.32 16.651 205.611 15.8281C204.908 15.0052 203.945 14.5938 202.721 14.5938C201.533 14.5938 200.564 15.0026 199.814 15.8203C199.064 16.6328 198.689 17.8333 198.689 19.4219C198.689 20.6927 199.01 21.7656 199.65 22.6406C200.296 23.5104 201.34 23.9453 202.783 23.9453Z" fill="black"/>
<rect x="1" y="1" width="247" height="36" rx="18" stroke="#D12FFF" stroke-width="2"/>
</svg>
